# xmcd
#
# Track frame offsets:
#	150
#	14810
#	26817
#	44496
#	62007
#	76875
#	91039
#	106234
#	121215
#	139167
#
# Disc length: 2168 seconds
#
# Revision: 0
# Processed by: cddbd v1.5.2PL0 Copyright (c) Steve Scherf et al.
# Submitted via: dBpowerAMP V4.0
#
DISCID=7f08760a
DTITLE=Roy Moller - Playing Songs No One's Listening To
DYEAR=2011
DGENRE=Rock
TTITLE0=Byres Road Saturday
TTITLE1=Downstate Update
TTITLE2=My Skyscrapers
TTITLE3=More Fool You
TTITLE4=Wonder Understand
TTITLE5=You Did Ask
TTITLE6=If You Knew Where To Look
TTITLE7=Rhythm From The Rails
TTITLE8=Out Of Print
TTITLE9=Slow Rock Forever
EXTD=
EXTT0=
EXTT1=
EXTT2=
EXTT3=
EXTT4=
EXTT5=
EXTT6=
EXTT7=
EXTT8=
EXTT9=
PLAYORDER=
